<?xml version="1.0" standalone="no"?>
<!DOCTYPE svg PUBLIC "-//W3C//DTD SVG 20010904//EN"
 "http://www.w3.org/TR/2001/REC-SVG-20010904/DTD/svg10.dtd">
<svg version="1.0" xmlns="http://www.w3.org/2000/svg"
 width="1280.000000pt" height="1137.000000pt" viewBox="0 0 1280.000000 1137.000000"
 preserveAspectRatio="xMidYMid meet">
<metadata>
Created by potrace 1.15, written by Peter Selinger 2001-2017
</metadata>
<g transform="translate(0.000000,1137.000000) scale(0.100000,-0.100000)"
fill="#000000" stroke="none">
<path d="M6770 11364 c-354 -31 -611 -83 -925 -188 -535 -179 -1008 -468
-1417 -865 -269 -260 -464 -510 -675 -859 l-20 -34 -18 44 c-23 58 -31 208
-15 306 54 335 320 746 650 1001 l89 68 -72 7 c-76 7 -290 -7 -392 -24 -452
-80 -888 -320 -1245 -686 -516 -530 -709 -1178 -484 -1627 198 -395 648 -621
1348 -677 71 -5 169 -10 217 -10 49 0 89 -4 89 -9 0 -20 -180 -153 -265 -196
-135 -67 -222 -87 -385 -87 -148 -1 -294 24 -480 81 -55 16 -97 24 -99 19 -2
-6 15 -47 38 -93 113 -229 383 -373 806 -432 145 -20 503 -22 675 -4 440 46
877 153 1289 315 63 25 116 44 118 43 3 -3 -72 -1069 -82 -1174 l-7 -63 892 0
892 0 -6 58 c-3 31 -22 282 -41 557 -19 275 -37 529 -41 565 l-6 64 66 -62
c332 -310 772 -515 1243 -578 169 -22 445 -22 618 1 505 66 956 297 1192 610
55 72 126 217 149 300 16 62 32 255 20 255 -4 0 -32 -11 -64 -24 -160 -67
-335 -100 -532 -99 -165 0 -268 18 -365 63 -62 29 -102 57 -94 64 2 2 54 18
114 36 405 116 711 274 923 474 146 138 239 283 284 441 32 113 32 287 0 399
-96 336 -404 619 -823 757 -652 214 -1449 55 -2176 -433 -57 -38 -103 -64
-103 -60 0 5 14 42 30 83 151 366 403 574 908 749 139 49 131 34 83 151 -33
78 -82 154 -152 235 -237 271 -623 448 -1138 520 -101 14 -516 26 -611 18z"/>
<path d="M6085 5684 c-2235 -44 -4002 -462 -4271 -1010 -25 -51 -29 -70 -29
-144 0 -74 4 -93 30 -145 176 -354 1039 -677 2280 -854 207 -30 639 -81 683
-81 l22 0 0 195 c0 107 -3 195 -7 195 -38 0 -405 60 -578 95 -651 131 -1016
313 -1015 506 2 278 743 532 1885 648 441 45 796 61 1315 61 941 0 1764 -81
2385 -236 270 -67 539 -170 657 -252 384 -266 56 -544 -857 -727 -173 -35
-540 -95 -578 -95 -4 0 -7 -88 -7 -195 l0 -195 23 0 c43 0 475 51 682 81 712
101 1315 254 1736 440 269 118 474 274 544 414 26 52 30 71 30 145 0 74 -4 93
-29 144 -225 458 -1525 839 -3296 965 -468 34 -1170 53 -1605 45z"/>
<path d="M5420 4595 c0 -43 -79 -1787 -84 -1858 l-5 -68 82 -37 c667 -295
1175 -810 1308 -1325 22 -82 40 -227 29 -227 -4 0 -22 21 -41 48 -176 246
-489 556 -765 758 -788 575 -1792 736 -2616 419 -350 -135 -662 -387 -813
-657 l-25 -46 132 -64 c217 -106 361 -207 491 -348 154 -167 240 -358 262
-585 l7 -70 -144 141 c-78 77 -179 169 -223 204 -267 211 -592 370 -881 429
-405 84 -821 28 -1196 -159 -483 -242 -835 -663 -933 -1118 l-7 -32 6402 0
6401 0 -6 37 c-77 461 -363 822 -843 1062 -432 216 -995 285 -1502 184 -381
-76 -719 -249 -949 -487 -40 -42 -75 -76 -78 -76 -7 0 6 106 23 183 77 359
398 736 721 848 31 10 68 19 82 19 60 1 59 16 -4 81 -224 228 -594 358 -1075
376 -680 25 -1345 -212 -1578 -564 l-37 -57 -3 45 c-11 165 -172 2930 -172
2948 l0 21 -980 0 -980 0 0 -25z"/>
</g>
</svg>
